<svg width="1440" height="608" xmlns="http://www.w3.org/2000/svg" xmlns:xlink="http://www.w3.org/1999/xlink"><defs><radialGradient cx="49.202%" cy="90.086%" fx="49.202%" fy="90.086%" r="138.525%" gradientTransform="matrix(0 1 -.38889 0 .842 .409)" id="b"><stop stop-color="#00C7EF" offset="0%"/><stop stop-color="#0095DA" offset="100%"/></radialGradient><radialGradient cx="100%" cy="100%" fx="100%" fy="100%" r="138.525%" gradientTransform="matrix(0 1 -.81047 0 1.81 0)" id="c"><stop stop-color="#00C7EF" offset="0%"/><stop stop-color="#0095DA" offset="100%"/></radialGradient><radialGradient cx="100%" cy="100%" fx="100%" fy="100%" r="138.525%" gradientTransform="matrix(0 1 -.9411 0 1.941 0)" id="e"><stop stop-color="#0095DA" offset="0%"/><stop stop-color="#00C7EF" offset="100%"/></radialGradient><radialGradient cx="127.508%" cy="44.841%" fx="127.508%" fy="44.841%" r="138.525%" gradientTransform="matrix(0 1 -.9411 0 1.697 -.827)" id="f"><stop stop-color="#00C7EF" offset="0%"/><stop stop-color="#0095DA" offset="100%"/></radialGradient><path id="a" d="M0 0h1440v478.545L0 560z"/></defs><g fill="none" fill-rule="evenodd"><path fill="#004F74" d="M1440 48H0v478.545L1440 608z"/><mask id="d" fill="#fff"><use xlink:href="#a"/></mask><use fill="url(#b)" xlink:href="#a"/><path d="M974.337 77.832l148.71 256.134c4.436 7.642 1.838 17.434-5.804 21.87a16 16 0 01-8.034 2.164H811.791c-8.837 0-16-7.163-16-16a16 16 0 012.163-8.034l148.71-256.134c4.436-7.641 14.228-10.24 21.87-5.803a16 16 0 015.803 5.803z" fill="url(#c)" opacity=".3" mask="url(#d)" transform="rotate(45 960.5 206)"/><rect fill="url(#e)" opacity=".25" mask="url(#d)" transform="rotate(30 447 242)" x="337" y="132" width="220" height="220" rx="20"/><circle fill="url(#f)" opacity=".25" mask="url(#d)" cx="696" cy="522" r="120"/></g></svg>